# xmcd
#
# Track frame offsets: 
#        150
#        15873
#        30197
#        44901
#        60225
#        70089
#        85906
#        100615
#        115821
#        128533
#        139733
#        153328
#        167024
#        180249
#
# Disc length: 2582 seconds
#
# Revision: 0
# Processed by: cddbd v1.5.2PL0 Copyright (c) Steve Scherf et al.
# Submitted via: ExactAudioCopy v1.0b4
#
DISCID=9c0a140e
DTITLE=Glenn Miller and His Orchestra - In The Mood
DYEAR=2007
DGENRE=Blues
TTITLE0=In The Mood
TTITLE1=Pensilvânia 06500
TTITLE2=American Patrol
TTITLE3=Serenade In Blue
TTITLE4=Danny Boy
TTITLE5=Saint Louis Blues March
TTITLE6=Moonlight Becomes You
TTITLE7=Sunrise Serenade
TTITLE8=Moon Love
TTITLE9=You And I
TTITLE10=Juke Box Saturday Night
TTITLE11=At Last 3
TTITLE12=I Know Why And So Do You
TTITLE13=Sun Valley Jump
EXTD=
EXTT0=
EXTT1=
EXTT2=
EXTT3=
EXTT4=
EXTT5=
EXTT6=
EXTT7=
EXTT8=
EXTT9=
EXTT10=
EXTT11=
EXTT12=
EXTT13=
PLAYORDER=
